<?xml version="1.0" encoding="utf-8"?>
<!-- Generator: Adobe Illustrator 25.1.0, SVG Export Plug-In . SVG Version: 6.00 Build 0)  -->
<svg version="1.1" id="Layer_1" xmlns="http://www.w3.org/2000/svg" xmlns:xlink="http://www.w3.org/1999/xlink" x="0px" y="0px"
	 viewBox="0 0 520.66 248.32" style="enable-background:new 0 0 520.66 248.32;" xml:space="preserve">
<style type="text/css">
	.st0{fill:url(#SVGID_1_);}
	.st1{fill:url(#SVGID_2_);}
	.st2{fill:url(#SVGID_3_);}
	.st3{fill:url(#SVGID_4_);}
	.st4{fill:url(#SVGID_5_);}
	.st5{fill:url(#SVGID_6_);}
	.st6{fill:url(#SVGID_7_);}
	.st7{fill:#6D2929;}
	.st8{fill:url(#SVGID_8_);}
	.st9{fill:#97292D;}
	.st10{fill:#ED1C24;}
	.st11{fill:#C6252E;}
	.st12{fill:url(#SVGID_9_);}
	.st13{fill:#FFFFFF;}
	.st14{fill:#F15B67;}
	.st15{fill:#2A2259;}
	.st16{fill:#282B58;}
	.st17{fill:#2E376A;}
	.st18{fill:#DFDCEE;}
	.st19{fill:url(#SVGID_10_);}
	.st20{fill:url(#SVGID_11_);}
	.st21{fill:url(#SVGID_12_);}
	.st22{fill:#F9C0C4;}
	.st23{fill-rule:evenodd;clip-rule:evenodd;}
	.st24{fill-rule:evenodd;clip-rule:evenodd;fill:url(#SVGID_13_);}
	.st25{fill:#505989;}
	.st26{fill:url(#SVGID_14_);}
	.st27{fill-rule:evenodd;clip-rule:evenodd;fill:url(#SVGID_15_);}
	.st28{fill-rule:evenodd;clip-rule:evenodd;fill:url(#SVGID_16_);}
	.st29{fill-rule:evenodd;clip-rule:evenodd;fill:url(#SVGID_17_);}
	.st30{fill:url(#SVGID_18_);}
	.st31{fill:url(#SVGID_19_);}
	.st32{fill:#A4A1C1;}
	.st33{fill:url(#SVGID_20_);}
	.st34{fill:#D0C9E4;}
	.st35{fill:url(#SVGID_21_);}
	.st36{fill:url(#SVGID_22_);}
	.st37{display:none;fill:#FFFFFF;}
</style>
<g>
	<g>
		<g>
			<linearGradient id="SVGID_1_" gradientUnits="userSpaceOnUse" x1="210.948" y1="247.3585" x2="210.948" y2="0.9281">
				<stop  offset="0" style="stop-color:#3D3F42"/>
				<stop  offset="3.993359e-03" style="stop-color:#46484B"/>
				<stop  offset="0.0337" style="stop-color:#797D81"/>
				<stop  offset="0.0621" style="stop-color:#A0A5A8"/>
				<stop  offset="0.0885" style="stop-color:#C2C6C9"/>
				<stop  offset="0.1124" style="stop-color:#DCDEDF"/>
				<stop  offset="0.1331" style="stop-color:#EBECED"/>
				<stop  offset="0.1482" style="stop-color:#F1F2F2"/>
				<stop  offset="0.1737" style="stop-color:#EBECED"/>
				<stop  offset="0.2083" style="stop-color:#D9DDE0"/>
				<stop  offset="0.2481" style="stop-color:#BFC5C9"/>
				<stop  offset="0.2621" style="stop-color:#B4BBC0"/>
				<stop  offset="0.6002" style="stop-color:#A0A7AB"/>
				<stop  offset="0.6595" style="stop-color:#BFC4C8"/>
				<stop  offset="0.7249" style="stop-color:#DCDFE1"/>
				<stop  offset="0.7798" style="stop-color:#EEF0F0"/>
				<stop  offset="0.8172" style="stop-color:#F6F6F6"/>
				<stop  offset="0.8306" style="stop-color:#ECEDEE"/>
				<stop  offset="0.8538" style="stop-color:#D3D6D8"/>
				<stop  offset="0.8839" style="stop-color:#ACB0B4"/>
				<stop  offset="0.9193" style="stop-color:#7C8084"/>
				<stop  offset="0.9392" style="stop-color:#5F6266"/>
				<stop  offset="0.9429" style="stop-color:#5C5F63"/>
				<stop  offset="0.9718" style="stop-color:#46484C"/>
				<stop  offset="0.9892" style="stop-color:#3D3F42"/>
			</linearGradient>
			<path class="st0" d="M241.57,239.29c-0.08,0.04-0.33,0-0.33,0s-51.6-37.53-34.58-124.8c14.63-75.02,60.05-102.08,65.62-105
				l-1.04-8.56l-25.31,0.22c0,0-47.34,2.13-76.91,68.73c-17.4,39.19-31.72,96.64-3.16,144.98c18.65,31.58,42.65,32.51,42.65,32.51
				h31.74L241.57,239.29z"/>
		</g>
		<g>
			<g>
				<linearGradient id="SVGID_2_" gradientUnits="userSpaceOnUse" x1="268.6223" y1="247.1117" x2="268.6223" y2="218.9669">
					<stop  offset="0" style="stop-color:#3D3F42"/>
					<stop  offset="0.206" style="stop-color:#7B8084"/>
					<stop  offset="0.242" style="stop-color:#898F93"/>
					<stop  offset="0.333" style="stop-color:#ACB1B4"/>
					<stop  offset="0.4211" style="stop-color:#C9CDD0"/>
					<stop  offset="0.5045" style="stop-color:#DFE1E3"/>
					<stop  offset="0.5813" style="stop-color:#ECEDEE"/>
					<stop  offset="0.6452" style="stop-color:#F1F2F2"/>
					<stop  offset="0.7577" style="stop-color:#EDEEEF"/>
					<stop  offset="0.8772" style="stop-color:#E3E4E5"/>
					<stop  offset="0.9994" style="stop-color:#D1D3D4"/>
					<stop  offset="1" style="stop-color:#D1D3D4"/>
				</linearGradient>
				<path class="st1" d="M259.54,228.54c-5.94,4.01-16.85,11.62-25.53,14.48s-17.51,4.09-17.51,4.09h58.99
					c25.71-7.07,45.24-28.14,45.24-28.14h-49.42C271.32,218.97,265.92,224.23,259.54,228.54z"/>
			</g>
			<g>
				<linearGradient id="SVGID_3_" gradientUnits="userSpaceOnUse" x1="303.4688" y1="176.4507" x2="303.4688" y2="0.9268">
					<stop  offset="0" style="stop-color:#E9E9EA"/>
					<stop  offset="0.0376" style="stop-color:#BCBEC0"/>
					<stop  offset="0.1092" style="stop-color:#808285"/>
					<stop  offset="0.2084" style="stop-color:#BCBEC0"/>
					<stop  offset="0.3202" style="stop-color:#E6E7E8"/>
					<stop  offset="0.5249" style="stop-color:#E6E7E8"/>
					<stop  offset="0.6641" style="stop-color:#D1D3D4"/>
					<stop  offset="0.7508" style="stop-color:#ECECED"/>
					<stop  offset="0.8011" style="stop-color:#F7F7F8"/>
					<stop  offset="0.8656" style="stop-color:#FFFFFF"/>
					<stop  offset="0.8824" style="stop-color:#F6F7F7"/>
					<stop  offset="0.9064" style="stop-color:#E6E7E8"/>
					<stop  offset="0.9347" style="stop-color:#CDCED0"/>
					<stop  offset="0.9662" style="stop-color:#A9ACAE"/>
					<stop  offset="1" style="stop-color:#808285"/>
				</linearGradient>
				<path class="st2" d="M365.31,88.8c-5.73-87.43-67.89-87.87-67.89-87.87l-48.19,0.04l-7.94,1.47c0,0,10.02-3.73,30.95,5.74
					l4.88,2.49c0,0,30.91,16.63,37.9,62.55c7.9,51.96-18.11,103.23-18.11,103.23l52.21-0.33C349.13,176.12,368.36,135.3,365.31,88.8
					z"/>
			</g>
			<g>
				<linearGradient id="SVGID_4_" gradientUnits="userSpaceOnUse" x1="303.0584" y1="176.4507" x2="303.0584" y2="0.9268">
					<stop  offset="0.5538" style="stop-color:#FFFFFF"/>
					<stop  offset="0.5789" style="stop-color:#FCFCFC"/>
					<stop  offset="0.5879" style="stop-color:#F4F5F5"/>
					<stop  offset="0.5944" style="stop-color:#E9EBEC"/>
					<stop  offset="0.5996" style="stop-color:#DADDDF"/>
					<stop  offset="0.6041" style="stop-color:#C6CACE"/>
					<stop  offset="0.608" style="stop-color:#AFB4B8"/>
					<stop  offset="0.6115" style="stop-color:#959B9F"/>
					<stop  offset="0.6146" style="stop-color:#7B8084"/>
					<stop  offset="0.6281" style="stop-color:#8B9195"/>
					<stop  offset="0.659" style="stop-color:#AFB3B7"/>
					<stop  offset="0.6888" style="stop-color:#CDD0D3"/>
					<stop  offset="0.7169" style="stop-color:#E3E5E6"/>
					<stop  offset="0.7425" style="stop-color:#F1F1F2"/>
					<stop  offset="0.7634" style="stop-color:#F6F6F6"/>
					<stop  offset="0.8173" style="stop-color:#EDEEEF"/>
					<stop  offset="0.8925" style="stop-color:#E6E7E8"/>
					<stop  offset="0.9068" style="stop-color:#E2E3E4"/>
					<stop  offset="0.923" style="stop-color:#D6D8DA"/>
					<stop  offset="0.9401" style="stop-color:#C2C5C8"/>
					<stop  offset="0.9579" style="stop-color:#A7ABAF"/>
					<stop  offset="0.9762" style="stop-color:#878B8F"/>
					<stop  offset="0.9946" style="stop-color:#616569"/>
					<stop  offset="1" style="stop-color:#54575B"/>
				</linearGradient>
				<path class="st3" d="M365.49,88.8c-5.73-87.43-69.05-87.87-69.05-87.87l-48.19,0.04l-7.94,1.47c0,0,11.4-4.68,36.16,7.73
					l6.32,4.19c0,0,26.22,18.18,31.91,58.42c7.35,52.04-17.35,103.67-17.35,103.67l50.79-0.33
					C348.15,176.12,368.54,135.3,365.49,88.8z"/>
			</g>
		</g>
		<linearGradient id="SVGID_5_" gradientUnits="userSpaceOnUse" x1="331.9493" y1="175.1403" x2="331.9493" y2="68.3855">
			<stop  offset="0.0393" style="stop-color:#3D3F42"/>
			<stop  offset="0.0468" style="stop-color:#46484C"/>
			<stop  offset="0.0592" style="stop-color:#5C5F63"/>
			<stop  offset="0.0608" style="stop-color:#5F6266"/>
			<stop  offset="0.0807" style="stop-color:#7C8084"/>
			<stop  offset="0.1161" style="stop-color:#ACB0B4"/>
			<stop  offset="0.1462" style="stop-color:#D3D6D8"/>
			<stop  offset="0.1694" style="stop-color:#ECEDEE"/>
			<stop  offset="0.1828" style="stop-color:#F6F6F6"/>
			<stop  offset="0.2202" style="stop-color:#EEF0F0"/>
			<stop  offset="0.2751" style="stop-color:#DCDFE1"/>
			<stop  offset="0.3405" style="stop-color:#BFC4C8"/>
			<stop  offset="0.3998" style="stop-color:#A0A7AB"/>
			<stop  offset="0.7378" style="stop-color:#B4BBC0"/>
			<stop  offset="0.7519" style="stop-color:#BFC5C9"/>
			<stop  offset="0.7917" style="stop-color:#D9DDE0"/>
			<stop  offset="0.8263" style="stop-color:#EBECED"/>
			<stop  offset="0.8518" style="stop-color:#F1F2F2"/>
			<stop  offset="0.8742" style="stop-color:#D6D8DA"/>
			<stop  offset="0.9232" style="stop-color:#94999C"/>
			<stop  offset="0.9948" style="stop-color:#1E1F21"/>
			<stop  offset="1" style="stop-color:#000000"/>
		</linearGradient>
		<path class="st4" d="M348.56,175.14c17.34-35.45,20.74-73.89,15.05-105.8c-0.06-0.31-0.48-0.62-0.53-0.93h-0.25v-0.03h-50.19
			l0.49,0.15c2.93,17.67,3.74,34.36,0.36,53.86c-2.79,16.09-8.62,35.25-15.74,52.75H348.56z"/>
		<linearGradient id="SVGID_6_" gradientUnits="userSpaceOnUse" x1="203.8685" y1="174.4794" x2="203.8685" y2="0.6137">
			<stop  offset="0.172" style="stop-color:#54575B"/>
			<stop  offset="0.3622" style="stop-color:#E6E7E8"/>
			<stop  offset="0.9002" style="stop-color:#E6E7E8"/>
			<stop  offset="1" style="stop-color:#54575B"/>
		</linearGradient>
		<path class="st5" d="M256.16,2.65c-1.94-0.81-3.95-1.66-6.12-2.03c-1.17,0.01-2.35,0.04-3.53,0.07c-2.67,0.07,0.35,0.12-1.81-0.02
			l-0.33-0.01l1.06,0.03c-13.83,3.56-53.42,17.41-76.4,69.19c-11.55,26.03-23.88,63.69-17.2,103.54l-0.57,0.98l0.82,0.08
			c0.94-1.36,1.14-1.73,2.38-2.92l0.24-0.23l-0.05-0.33c-5.28-37.59,6.53-74.58,17.36-98.99c14.67-33.04,34.09-49.62,47.81-57.7
			c14.03-8.27,25.06-9.59,26.21-9.71h11.53l0.24-1.26C257.26,3.11,256.71,2.88,256.16,2.65z"/>
		<g>
			<linearGradient id="SVGID_7_" gradientUnits="userSpaceOnUse" x1="198.2561" y1="250.7894" x2="181.9419" y2="158.2672">
				<stop  offset="0" style="stop-color:#54575B"/>
				<stop  offset="0.0837" style="stop-color:#E6E7E8"/>
				<stop  offset="0.6378" style="stop-color:#E6E7E8"/>
				<stop  offset="0.828" style="stop-color:#54575B"/>
			</linearGradient>
			<path class="st6" d="M217.98,247.21l-9.68,0.14c-0.28-0.01-25.21-3.01-41.66-31.58c-8.58-14.91-14.73-33.77-16.2-49.81l0.16-0.98
				l0.57-0.41c1.24-0.41,0.53-0.17,1.71-0.84l0.89-0.5l0.09,1.02c1.56,17.9,6.71,34.34,15.29,48.87
				c16.57,28.06,37.05,30.41,39.33,30.59l21.72,0.01l-4.09,1.78l-3.6,0.9c-3.46,1.05-0.97-0.41-4.43,0.82H217.98z"/>
		</g>
		<g>
			<path class="st7" d="M347.59,174.96c4.11-9.26,7.34-18.55,9.95-27.87c-0.79,1.4-2.3,2.46-4.72,2.46l-44.22-0.19
				c-1.33,0-0.56,1.79-0.93,3.12l-0.07,0.19c-2.26,7.32-5.46,14.76-8.51,22.29H347.59z"/>
			<linearGradient id="SVGID_8_" gradientUnits="userSpaceOnUse" x1="334.2474" y1="150.2277" x2="334.2474" y2="131.7976">
				<stop  offset="0.15" style="stop-color:#9B2C30"/>
				<stop  offset="0.2622" style="stop-color:#B4282E"/>
				<stop  offset="0.3951" style="stop-color:#CD232B"/>
				<stop  offset="0.5049" style="stop-color:#DE2029"/>
				<stop  offset="0.5773" style="stop-color:#E41E29"/>
			</linearGradient>
			<path class="st8" d="M308.05,150.17h48.76c2.41,0,0.48-1.68,1.27-3.07c1.83-6.5,2.84-13.02,3.93-19.53
				c-0.73,1.46-2.26,3.33-4.88,3.33h-43.95c-1.16,0-0.4,0.83-0.93,1.92c-1.35,6.3-3.77,12.72-5.77,19.24h0.05
				C307.06,150.93,306.86,150.17,308.05,150.17z"/>
			<path class="st9" d="M360.51,116.25l-40.91,0.11c-2.43,0-2.78-3.41-3.57-2.01c0.01-0.1-0.82,5.14-0.8,5.03
				c-0.26,1.8-0.54,3.6-0.86,5.41c-0.47,2.74-1.15,5.97-1.76,8.76c0.02-0.09,0.04-0.18,0.06-0.27c0.12-1.1-0.53-1.84,0.63-1.85
				l47.95,0c2.61,0,0.8-1.93,1.1-3.55c1.02-4.75,1.3-9.12,1.55-13.08C363.37,115.88,361.66,116.25,360.51,116.25z"/>
			<path class="st10" d="M360.97,111.78l-40.63,0.03c-2.63,0-3.26-2.77-3.71-3.26c0.01-0.12-0.29,3.06-0.28,2.94
				c-0.18,1.49,0.1,1.09-0.12,2.59c-0.24,1.96,0.8,2.69,2.3,2.69l39.81,0c2.89,0,4.44,1.29,4.28,4.42
				c0.62-2.05,1.05-9.23,1.15-10.66C363.21,111.5,362.05,111.78,360.97,111.78z"/>
			<path class="st11" d="M364.17,102.37c-0.36,1.32-2.36,2.56-3.69,2.56l-39.38-0.08c-2.74,0-3.74-3.78-3.8-5.31
				c-0.2,2.26-0.21,6.99-0.49,9.27c-0.22,2.24,0.31,3.49,2.58,3.49l39.71,0.01c2.09,0,4.04,0.12,4.23,2.72
				c0.15-0.34,0.29-1.65,0.38-3c0.37-5.26,0.41-7.54,0.45-9.28V102.37z"/>
			<linearGradient id="SVGID_9_" gradientUnits="userSpaceOnUse" x1="339.8252" y1="109.1598" x2="339.8252" y2="70.1118">
				<stop  offset="0" style="stop-color:#DC676F"/>
				<stop  offset="0.011" style="stop-color:#DC6970"/>
				<stop  offset="0.1978" style="stop-color:#E78C90"/>
				<stop  offset="0.366" style="stop-color:#F0A6AA"/>
				<stop  offset="0.5085" style="stop-color:#F6B8BC"/>
				<stop  offset="0.6081" style="stop-color:#F9C0C4"/>
			</linearGradient>
			<path class="st12" d="M361.4,70.11l-46.08,0c1.89,12.36,2.21,25.1,1.93,32.58c-0.12,1.37,0.85,2.54,2.86,2.54h40.03
				c3.35,0,3.73,2.35,3.67,3.93l0.44-2.05C364.72,89.73,363.24,79.85,361.4,70.11z"/>
			<polygon class="st13" points="317.12,72.36 360.46,72.36 360.7,73.81 318.99,73.81 			"/>
			<path class="st14" d="M317.13,72.36c2.32,13.52,1.52,27.97,1.52,27.97c-0.04,1.59-0.1,3.55,2.18,3.55h39.48
				c1.55,0,2.48,0.47,2.48,0.47l0.07-2.65c-0.39-0.53-1.72-0.63-3.31-0.63h-37.98c-0.74,0-1.36-0.45-1.3-1.49
				c0.23-9.74-0.15-16.86-1.27-25.77L317.13,72.36z"/>
		</g>
		<path d="M299.38,2.62L299.38,2.62c0.15,0,14.93-0.28,30.81,11.34c19.38,15.15,31,39.89,33.54,75.41
			c2.89,40.43-12.45,77.4-16.03,85.02l-47.96,0c2.34-5.34,6.64-15.99,10.44-29.86c5.03-18.34,10.23-46.27,5.49-73.5
			C307,21.2,275.65,8.64,274.37,8.12l-1.07-0.44l-1.05,0.5c-0.53,0.25-13.05,6.34-27.6,22.49c-13.33,14.81-30.94,41.28-39.14,83.32
			c-8.94,45.83,0.83,77.57,10.6,96.14c10.66,20.25,23.36,29.49,23.9,29.87l1.33,0.95l1.44-0.77c0.38-0.21,9.45-5.08,15.87-9.41
			c5.33-3.59,11.26-8.55,13.32-10.31l45.6-0.03c-7.56,6.97-23.68,20.26-41.51,25.27l-67.65-0.03c-1.24-0.1-23.7-2.38-40.93-31.55
			c-30.14-51.03-11.21-111.44,2.76-142.91c14.91-33.6,34.74-50.46,48.74-58.68c14.51-8.52,25.96-9.8,27-9.9L299.38,2.62 M299.39,0
			L299.39,0l-53.54,0c0,0-48.46,3.54-78.02,70.14c-17.4,39.19-31.17,96.97-2.62,145.31c18.65,31.58,43.09,32.84,43.09,32.84
			l68.1,0.03c25.71-7.07,47.59-30.52,47.59-30.52l-53.01,0.04c0,0-7.43,6.45-13.81,10.75c-6.38,4.31-15.64,9.27-15.64,9.27
			s-50.47-36.11-33.45-123.38c15.65-80.24,65.3-103.95,65.3-103.95s31.2,11.97,39.72,60.93C322.11,123.25,295.66,177,295.66,177
			l53.68,0c0,0,20.33-41.34,17-87.82C359.97,0.05,299.54,0,299.39,0L299.39,0z"/>
	</g>
	<g>
		<path class="st15" d="M520.66,68.41h-46.11l-25.14,23.01c-1.99,1.82-2.15,1.87-2.69,1.9c-0.51,0-0.81-0.46-1.67-1.91l-13.67-23
			h-44.54l29.35,51.61l-62.83,56.91h46.14l25.86-24.98c1.71-1.66,4.97-4.35,5.53-4.35c0.77,0,2.19,2.58,3.07,4.1l14.89,25.22
			l46.14,0l-33.18-55.52L520.66,68.41z"/>
		<path class="st15" d="M259.03,68.41l-10.6,48.08c-0.72,3.27-1.07,5.08-1.41,5.08c-0.97,0-1.29-1.2-3.07-5l-22.47-48.15h-45.1
			L146.3,176.94l46.67,0l12.03-52.05c0.34-1.39,0.71-3.33,1.29-3.33c0.57,0,0.73,0.59,1.51,2.15l25.75,53.24h47.65l23.92-108.52
			H259.03z"/>
		<path class="st15" d="M136.7,134.43l18.09-66.02h-47.66l-18.62,67.21c-0.63,2.29-1.48,5.26-2.75,6.54
			c-1.99,1.99-5.88,2.39-9.62,2.53c-3.74,0.14-4.27,0.19-9.32,0.19c-5.58,0-11.41-0.18-13.98-0.97c-3.01-0.92-4.26-1.32-3.73-6.33
			c0.15-1.45,0.46-3.16,1.01-5.07l18.41-64.09L22.1,68.44L6.41,126.13c-1.19,4.36-4.32,14.96-4.99,18.48
			c-6.59,31.68,11.44,32.14,19.38,32.17h43.75l34.02,0c8.16-0.19,13.56-0.96,20.45-4.91C128.98,165.03,131.88,150.22,136.7,134.43z"
			/>
	</g>
	<g>
		<g>
			<g>
				<path class="st16" d="M198.86,187.23h7.6l-1.35,27.21h-5.34l0.36-5.83h-6.44l-2.74,5.83h-5.79L198.86,187.23z M195.56,204.52
					h4.92l0.93-12.74L195.56,204.52z"/>
			</g>
			<g>
				<path class="st16" d="M221.95,187.23l-5.17,17.56l-0.54,2.01c-0.17,0.69-0.25,1.33-0.25,1.91c-0.01,0.61,0.19,1.1,0.6,1.47
					c0.41,0.37,0.92,0.56,1.53,0.56c1.69,0.01,2.87-1.14,3.57-3.43l5.9-20.07h5.62l-5.6,19l-0.52,1.68
					c-0.84,2.53-2.02,4.3-3.57,5.31c-1.63,1.06-3.7,1.59-6.21,1.6c-2.02-0.01-3.62-0.43-4.8-1.26c-1.44-0.99-2.15-2.44-2.12-4.34
					c0-1.11,0.14-2.22,0.43-3.3l0.54-1.91l4.94-16.79H221.95z"/>
			</g>
			<g>
				<path class="st16" d="M241.99,191.32h-6.02l1.24-4.09h17.27l-1.2,4.09h-5.56l-6.82,23.12h-5.75L241.99,191.32z"/>
			</g>
			<g>
				<path class="st16" d="M271.41,203.47c-0.78,2.74-1.62,5.01-2.51,6.81c-1.48,3.03-4.39,4.55-8.74,4.54
					c-1.02,0.01-1.98-0.1-2.9-0.33c-1.35-0.31-2.42-0.92-3.19-1.83c-0.82-0.98-1.23-2.13-1.21-3.46c0-1.38,0.47-3.61,1.41-6.71
					l1.56-5.11c0.33-1.15,0.75-2.34,1.25-3.57c0.68-1.75,1.44-3.13,2.28-4.13c1.01-1.21,2.35-2.02,3.99-2.45
					c0.99-0.26,2.05-0.39,3.19-0.39c2.13,0.02,3.81,0.41,5.03,1.16c1.6,0.99,2.4,2.46,2.41,4.4c0,0.9-0.11,1.85-0.35,2.86
					c-0.32,1.42-0.61,2.57-0.87,3.45L271.41,203.47z M259.19,205.35l-0.39,1.5c-0.18,0.71-0.27,1.33-0.27,1.85
					c-0.01,1.36,0.76,2.04,2.3,2.03c1.62,0.04,2.94-1.5,3.96-4.61l0.6-1.91l2.69-9.51c0.18-0.63,0.27-1.22,0.27-1.76
					c0.01-1.31-0.72-1.98-2.2-2.01c-1.17,0.04-2.08,0.53-2.74,1.47c-0.38,0.57-0.78,1.55-1.18,2.96l-1.06,3.32L259.19,205.35z
					 M268.78,178.89h5.98l-5.48,6.02h-4.38L268.78,178.89z"/>
			</g>
			<g>
				<path class="st16" d="M285.35,187.23h7.61l-1.35,27.21h-5.35l0.37-5.83h-6.45l-2.74,5.83h-5.79L285.35,187.23z M282.05,204.52
					h4.92l0.92-12.74L282.05,204.52z"/>
			</g>
			<g>
				<path class="st16" d="M303.46,187.23h5.68l-6.55,22.17H310l-1.47,5.04h-13.09L303.46,187.23z"/>
			</g>
			<g>
				<path class="st16" d="M312.85,214.44l8.06-27.21h5.65l-8.05,27.21H312.85z M322.96,199.42l8.4-12.2h5.88l-8.78,12.73l1.85,14.48
					h-5.6L322.96,199.42z"/>
			</g>
			<g>
				<path class="st16" d="M346.55,187.23h7.61l-1.35,27.21h-5.35l0.37-5.83h-6.45l-2.74,5.83h-5.79L346.55,187.23z M343.26,204.52
					h4.92l0.93-12.74L343.26,204.52z"/>
			</g>
			<g>
				<path class="st16" d="M364.4,191.32h-6.03l1.23-4.09h17.27l-1.2,4.09h-5.56l-6.81,23.12h-5.75L364.4,191.32z"/>
			</g>
			<g>
				<path class="st16" d="M381.11,187.23h5.87c1.12,0,2.1,0.03,2.93,0.1c1.09,0.07,2.06,0.36,2.91,0.86
					c0.75,0.44,1.29,1.07,1.64,1.89c0.26,0.63,0.4,1.27,0.4,1.91c-0.02,2.41-0.61,4.49-1.75,6.25c-0.64,1-1.48,1.73-2.51,2.18
					c-0.7,0.32-1.78,0.6-3.24,0.83c2.66,0.59,3.99,1.71,3.97,3.36c-0.01,0.58-0.09,1.2-0.23,1.87l-0.5,2.1l-0.62,2.53
					c-0.25,1.05-0.39,1.81-0.39,2.26l0.04,1.06h-5.73l0.02-1.37c0.04-0.5,0.14-1.09,0.31-1.77l0.66-2.55l0.52-2.01
					c0.15-0.64,0.24-1.23,0.25-1.78c-0.03-0.91-0.58-1.45-1.66-1.62c-0.61-0.08-1.29-0.12-2.04-0.14l-3.26,11.23h-5.61
					L381.11,187.23z M383.22,199.05l0.77,0.06c0.71,0,1.3-0.06,1.77-0.18c1.03-0.24,1.85-0.92,2.45-2.03
					c0.31-0.56,0.55-1.16,0.72-1.77c0.17-0.62,0.26-1.2,0.26-1.74c0.01-0.91-0.42-1.53-1.3-1.83c-0.47-0.16-1.27-0.24-2.41-0.25
					L383.22,199.05z"/>
			</g>
			<g>
				<path class="st16" d="M402.2,187.23h13.54l-1.18,4.09h-7.93l-2.1,7.08h7.61l-1.19,4.09h-7.61l-2.35,7.85h8.31l-1.12,4.09h-14.07
					L402.2,187.23z M410.05,178.89h5.99l-5.48,6.02h-4.38L410.05,178.89z"/>
			</g>
			<g>
				<path class="st16" d="M420.5,205.64l-0.25,1.04c-0.2,0.77-0.31,1.45-0.29,2.01c-0.03,1.37,0.72,2.05,2.24,2.05
					c1.14,0.01,2.08-0.52,2.81-1.58c0.7-1,1.05-2.06,1.05-3.18c-0.01-0.59-0.18-1.1-0.49-1.51c-0.41-0.51-1.02-1.04-1.83-1.58
					c-1.17-0.76-2.2-1.52-3.11-2.28c-1.43-1.16-2.14-2.55-2.14-4.16c-0.02-1.35,0.25-2.68,0.79-3.96c1.19-2.92,3.15-4.69,5.88-5.3
					c0.99-0.22,2.03-0.33,3.11-0.33c1.39,0,2.65,0.17,3.78,0.5c2.18,0.63,3.28,2.09,3.3,4.36c-0.02,0.66-0.08,1.29-0.21,1.89
					l-0.48,1.83h-5.5l0.08-0.4l0.25-1c0.14-0.54,0.22-1.02,0.23-1.45c0.01-1.08-0.65-1.63-1.99-1.64c-1.08,0.03-1.91,0.48-2.51,1.36
					c-0.59,0.88-0.88,1.8-0.87,2.75c-0.01,0.64,0.1,1.15,0.35,1.52c0.29,0.49,0.79,0.97,1.47,1.45l2.55,1.78
					c2.1,1.45,3.14,3.2,3.14,5.25c0,1.22-0.26,2.51-0.77,3.86c-0.57,1.46-1.24,2.58-2.03,3.38c-1.67,1.67-4.1,2.52-7.28,2.54
					c-1.37,0.01-2.65-0.14-3.82-0.46c-2.47-0.6-3.71-2.16-3.74-4.65c0-0.86,0.15-1.97,0.46-3.32l0.17-0.75H420.5z"/>
			</g>
			<g>
				<path class="st16" d="M434.56,209.54l14.48-18.22h-9.01l1.25-4.09h15.11l-1.32,4.59l-14.39,18.52h9.41l-1.15,4.09h-15.67
					L434.56,209.54z"/>
			</g>
			<g>
				<path class="st16" d="M461.2,187.23h13.55l-1.18,4.09h-7.93l-2.1,7.08h7.6l-1.2,4.09h-7.6l-2.35,7.85h8.32l-1.12,4.09h-14.07
					L461.2,187.23z"/>
			</g>
			<g>
				<path class="st16" d="M471.9,214.44l8.07-27.21h5.65l-8.05,27.21H471.9z M482.01,199.42l8.39-12.2h5.88l-8.78,12.73l1.85,14.48
					h-5.6L482.01,199.42z"/>
			</g>
		</g>
		<g>
			<g>
				<path class="st16" d="M514.38,188.02c0,1.26-0.32,2.44-0.95,3.53c-0.63,1.09-1.49,1.96-2.58,2.58c-1.1,0.63-2.27,0.95-3.54,0.95
					c-1.26,0-2.44-0.31-3.53-0.95c-1.09-0.63-1.95-1.49-2.58-2.58c-0.64-1.09-0.95-2.27-0.95-3.53c0-1.26,0.32-2.44,0.95-3.54
					c0.63-1.09,1.5-1.95,2.58-2.58c1.1-0.63,2.27-0.95,3.53-0.95c1.26,0,2.44,0.31,3.54,0.95c1.09,0.63,1.95,1.49,2.58,2.58
					C514.06,185.58,514.38,186.76,514.38,188.02z M513,188.02c0-1.58-0.55-2.92-1.67-4.04c-1.11-1.11-2.45-1.67-4.03-1.67
					c-1.58,0-2.92,0.56-4.03,1.67c-1.12,1.12-1.67,2.46-1.67,4.04c0,1.57,0.55,2.91,1.67,4.03c1.11,1.11,2.46,1.67,4.03,1.67
					c1.57,0,2.91-0.56,4.03-1.67C512.45,190.94,513,189.59,513,188.02z M504.1,184.25h3.38c0.96,0,1.65,0.19,2.08,0.57
					c0.43,0.39,0.64,0.91,0.64,1.55c0,0.51-0.17,0.95-0.49,1.32c-0.33,0.37-0.84,0.64-1.55,0.8c0.29,0.11,0.5,0.23,0.64,0.35
					c0.19,0.17,0.39,0.43,0.6,0.77c0.01,0.02,0.42,0.75,1.22,2.18h-2.22c-0.72-1.44-1.21-2.29-1.46-2.58
					c-0.24-0.28-0.49-0.42-0.74-0.42c-0.05,0-0.13,0.01-0.23,0.03v2.97h-1.88V184.25z M505.98,187.44h0.81
					c0.54,0,0.93-0.08,1.15-0.26c0.22-0.17,0.33-0.4,0.33-0.68s-0.11-0.51-0.32-0.69c-0.22-0.17-0.58-0.26-1.09-0.26h-0.89V187.44z"
					/>
			</g>
		</g>
	</g>
	<path class="st17" d="M6.39,132.49c-0.03,0.11-0.06,0.22-0.1,0.34l0,0C6.33,132.71,6.36,132.6,6.39,132.49z"/>
	<g>
		<path class="st9" d="M359.19,131.02L359.19,131.02c0.01-0.05,0.02-0.1,0.03-0.14C359.21,130.92,359.2,130.97,359.19,131.02z"/>
	</g>
	<polygon class="st18" points="202.95,126.49 202.95,126.49 202.95,126.49 	"/>
	<linearGradient id="SVGID_10_" gradientUnits="userSpaceOnUse" x1="136.9857" y1="147.1313" x2="136.9857" y2="130.1414">
		<stop  offset="0.15" style="stop-color:#2E376A"/>
		<stop  offset="0.2243" style="stop-color:#353E70"/>
		<stop  offset="0.4369" style="stop-color:#454D7E"/>
		<stop  offset="0.5773" style="stop-color:#4B5383"/>
	</linearGradient>
	<polygon class="st19" points="136.99,126.49 136.99,126.49 136.99,126.49 	"/>
	<linearGradient id="SVGID_11_" gradientUnits="userSpaceOnUse" x1="1.9814" y1="151.9678" x2="1.9814" y2="151.8009">
		<stop  offset="0.15" style="stop-color:#2E376A"/>
		<stop  offset="0.2243" style="stop-color:#353E70"/>
		<stop  offset="0.4369" style="stop-color:#454D7E"/>
		<stop  offset="0.5773" style="stop-color:#4B5383"/>
	</linearGradient>
	<path class="st20" d="M1.99,151.76c-0.01,0.07-0.02,0.15-0.02,0.22h0C1.98,151.91,1.98,151.84,1.99,151.76z"/>
	<linearGradient id="SVGID_12_" gradientUnits="userSpaceOnUse" x1="240.9313" y1="114.4034" x2="240.9313" y2="113.7986">
		<stop  offset="0.0962" style="stop-color:#2A2358"/>
		<stop  offset="0.2384" style="stop-color:#353567"/>
		<stop  offset="0.4539" style="stop-color:#454B7B"/>
		<stop  offset="0.5773" style="stop-color:#4B5383"/>
		<stop  offset="0.6843" style="stop-color:#464F7F"/>
		<stop  offset="0.824" style="stop-color:#3A4374"/>
		<stop  offset="0.9194" style="stop-color:#2E376A"/>
	</linearGradient>
	<path class="st21" d="M240.79,113.8c0,0,0.11,0.24,0.28,0.6c0,0,0,0,0,0L240.79,113.8z"/>
	<polygon class="st15" points="285.03,145.73 285.03,145.73 285.03,145.73 	"/>
	<g>
		<path class="st10" d="M318.2,113.99c0.02-0.14,0.03-0.29,0.05-0.43C318.24,113.7,318.22,113.85,318.2,113.99z"/>
	</g>
	<polygon class="st22" points="318.38,109.71 318.38,109.71 318.38,109.71 	"/>
	<path class="st23" d="M240.89,0.84c0,0,8.17-1.25,17.84,1.31c8.85,2.35,19.66,6.27,29.62,15.75c0,0-0.51,0.68-3.57-1.16
		c-3.07-1.84,2.66,3.02-3.18-1.34c-5.13-3.82-21.23-12.52-35.71-12.85C239.74,2.42,240.89,0.84,240.89,0.84z"/>
	<path d="M244.73,239.07c0,0-3.02,2.02-10.2,4.91c-8.94,3.6-21,4.2-23.62,4.25c-2.62,0.05-5.84-2.51-2.07-2.51
		c3.76,0,10.86,0.15,17.02-1.53c10.8-2.95,16.31-6.65,16.31-6.65L244.73,239.07z"/>
	<linearGradient id="SVGID_13_" gradientUnits="userSpaceOnUse" x1="69.0425" y1="150.1851" x2="69.0425" y2="130.9327">
		<stop  offset="0.15" style="stop-color:#2E376A"/>
		<stop  offset="0.2243" style="stop-color:#353E70"/>
		<stop  offset="0.4369" style="stop-color:#454D7E"/>
		<stop  offset="0.5773" style="stop-color:#4B5383"/>
	</linearGradient>
	<path class="st24" d="M131.37,146.49c0.54-1.8,1.08-3.65,1.63-5.54c0.66-2.28,1.34-4.63,2.07-6.99l0.81-3.01l-44.3-0.02l-1.43,5.15
		c-0.82,2.98-1.73,6.23-3.23,7.73c-2.4,2.4-6.55,2.42-10.72,2.58l-1.26,0.05c-2.67,0.1-3.67,0.14-8.12,0.14
		c-7.57,0-12.17-0.33-14.48-1.05c-1.66-0.51-3.1-0.95-4.06-2.25c-0.92-1.25-1.27-1.74-0.96-4.68c0.17-1.7,0.39-3.37,1.17-6.58
		l0.28-0.97l-41.95-0.02l-0.12,0.41c-0.1,0.34-0.19,0.69-0.29,1.04c-1.33,4.7-2.86,10.16-3.3,12.45l-0.01,0.03
		c-0.38,1.82-0.65,3.53-0.88,5.19c32.29,0.01,82.46,0.02,128.01,0.03C130.61,148.98,130.99,147.75,131.37,146.49z"/>
	<g>
		<path class="st17" d="M136.12,116.23l-37.96-0.16c-1.11,0-2.15-0.07-2.16-1.1l-4.57,16.48l44.33,0.01l1.08-3.96l0,0l1.68-6.24v0
			C138.89,119.91,139.52,116.23,136.12,116.23z"/>
		<path class="st17" d="M12.91,116.14c-0.91,0-1.42-0.67-1.64-1.4l-4.58,16.69l41.96,0l3.08-10.73c0.26-1.49,0.7-4.45-2.39-4.45
			L12.91,116.14z"/>
	</g>
	<path class="st25" d="M13.07,116.77l35.67,0c3.09,0,3.12,2.93,2.86,4.42l1.95-6.83c0.37-1.33,0.61-4.61-2.9-4.61l-35.91-0.01
		c-0.91,0-1.71,0-1.92-0.74l-1.57,5.8C10.95,115.94,11.76,116.77,13.07,116.77z"/>
	<path class="st25" d="M97.91,116.76h37.73c3.4,0,3.25,3.15,2.88,4.48v0l1.89-6.85c0.38-1.38,0.54-4.65-2.86-4.65H99.83
		c-1.08,0-1.85-0.72-1.91-1.7l-1.89,6.81C95.7,116.04,96.8,116.76,97.91,116.76z"/>
	<g>
		<path class="st16" d="M2.31,149.44c-0.07,0.52-0.24,1.74-0.32,2.28c-0.76,7.82-0.22,12.62,2.98,17.16
			c3.91,5.54,11.92,6.47,15.84,6.49l77.74-0.08c8.06-0.19,13.56-1.78,20.07-5.5c6.74-4.52,10.23-14.35,11.75-20.02
			C84.81,149.76,34.6,149.45,2.31,149.44z"/>
		<linearGradient id="SVGID_14_" gradientUnits="userSpaceOnUse" x1="91.6954" y1="131.4364" x2="91.6954" y2="131.4364">
			<stop  offset="0.351" style="stop-color:#2D275C"/>
			<stop  offset="0.4823" style="stop-color:#3C3F70"/>
			<stop  offset="0.5814" style="stop-color:#4B5383"/>
			<stop  offset="0.6472" style="stop-color:#4B5383"/>
			<stop  offset="0.7323" style="stop-color:#464F7F"/>
			<stop  offset="0.8435" style="stop-color:#3A4374"/>
			<stop  offset="0.9194" style="stop-color:#2E376A"/>
		</linearGradient>
		<polygon class="st26" points="91.96,131.44 91.43,131.44 91.43,131.44 		"/>
	</g>
	<g>
		<path class="st16" d="M155.69,149.44l-7.18,25.92l43.08,0l6-25.95C179.54,149.4,163.91,149.44,155.69,149.44z"/>
		<path class="st16" d="M222.32,149.81l12.35,25.55h45.13l5.63-25.51C270.89,149.85,245.67,149.81,222.32,149.81z"/>
	</g>
	<linearGradient id="SVGID_15_" gradientUnits="userSpaceOnUse" x1="431.2344" y1="150.1646" x2="431.2344" y2="130.8713">
		<stop  offset="0.15" style="stop-color:#2E376A"/>
		<stop  offset="0.2243" style="stop-color:#353E70"/>
		<stop  offset="0.4369" style="stop-color:#454D7E"/>
		<stop  offset="0.5773" style="stop-color:#4B5383"/>
	</linearGradient>
	<path class="st27" d="M385.45,150.16c9.56,0,23.81,0,39.34,0c0.82-0.75,1.8-1.6,2.71-2.33c2.23-1.78,2.81-1.92,3.39-1.92
		c1.55,0,2.62,1.62,4.15,4.25c14.39,0,29.21,0,41.98,0l-11.54-19.29h-58.7L385.45,150.16z"/>
	<g>
		<linearGradient id="SVGID_16_" gradientUnits="userSpaceOnUse" x1="251.379" y1="150.1659" x2="251.379" y2="130.8701">
			<stop  offset="0.15" style="stop-color:#2E376A"/>
			<stop  offset="0.2243" style="stop-color:#353E70"/>
			<stop  offset="0.4369" style="stop-color:#454D7E"/>
			<stop  offset="0.5773" style="stop-color:#4B5383"/>
		</linearGradient>
		<polygon class="st28" points="213.16,130.87 222.49,150.16 285.35,150.17 289.6,130.88 		"/>
		<g>
			<path class="st16" d="M476.63,149.53c-12.77,0-27.79-0.36-42.18-0.36c0.07,0.12,15.38,25.98,15.38,25.98l42.04-0.11
				L476.63,149.53z"/>
			<path class="st17" d="M406.12,131.44h59.7l-6.19-10.35l2.03-1.83c0.86-1.19,2.14-3.03,0-3.03h-40.91c-1.77,0-4.03,0.03-5.6-1.45
				l3.19,5.6L406.12,131.44z"/>
			<path class="st16" d="M386.15,149.53l-28.29,25.8h40.67c0,0,26.8-25.64,27.01-25.84C410.01,149.48,395.72,149.53,386.15,149.53z"
				/>
		</g>
		<linearGradient id="SVGID_17_" gradientUnits="userSpaceOnUse" x1="178.6653" y1="150.1621" x2="178.6653" y2="131.0964">
			<stop  offset="0.15" style="stop-color:#2E376A"/>
			<stop  offset="0.2243" style="stop-color:#353E70"/>
			<stop  offset="0.4369" style="stop-color:#454D7E"/>
			<stop  offset="0.5773" style="stop-color:#4B5383"/>
		</linearGradient>
		<path class="st29" d="M201.84,131.1h-41.07l-5.28,19.06c8.22,0,41.93,0,41.93,0L201.84,131.1z"/>
	</g>
	<path class="st25" d="M465.42,115.88c1.02-1.26,3.9-4.04,1.12-4.04l-49.01-0.11c-2.31,0-4.09-0.56-5.5-2.46l3.34,5.86
		c0.59,1.1,2.4,1.63,4.17,1.63h39.75c2.96,0,1.18,3.59,0.36,4.33L465.42,115.88z"/>
	<g>
		<path class="st16" d="M292.37,105l-37.5,0.04c-1.17-0.01-1.66-0.95-1.72-2.07l-1.75,7.92c-0.19,1.22,0.67,1.41,1.91,1.42h36.51
			c2.08,0,3.27,1.21,3.33,2.43l1.29-5.84C294.75,107.5,295.19,105,292.37,105z"/>
		<path class="st16" d="M166.37,110.87c-0.12,1.34,0.9,2.06,2.04,2.06l67.5-0.2c1.32,0,3.51,0.71,5.25,1.84l-4.02-8.58
			c0,0-1.36-1.1-3.8-1.1l-62.69,0.11c-1.22,0-1.96-1.09-2.13-1.86L166.37,110.87z"/>
		<path class="st16" d="M141.85,109.16c0.22-1.5,0.7-4.14-2.25-4.14l-38.17,0.04c-1.16,0-1.72-0.9-2.23-1.7l-1.96,7.12
			c-0.33,1.17,0.75,1.82,1.96,1.82h37.73c2.92,0,3.22,2.31,3.02,3.81L141.85,109.16z"/>
		<path class="st16" d="M472.62,105.02l-59.44,0.08c-2.64,0-3.13-0.41-4.86-2.34l4.29,7.55c1.39,1.79,3.77,2,6.08,2h43.99
			c4.66,0,3.81,2.47,2.73,3.6l7.47-6.74C473.82,108.05,475.59,105.02,472.62,105.02z"/>
		<path class="st16" d="M13.9,112.3l36.19,0c2.74,0,3.28,1.93,3.07,3.4l1.82-6.34c0.29-1.47,0.77-4.4-2.42-4.4l-35.51-0.05
			c0,0-2.12-0.55-2.78-1.23l-1.85,6.79C12.19,111.42,12.86,112.3,13.9,112.3z"/>
	</g>
	<linearGradient id="SVGID_18_" gradientUnits="userSpaceOnUse" x1="453.0001" y1="109.1466" x2="453.0001" y2="70.1178">
		<stop  offset="0" style="stop-color:#676891"/>
		<stop  offset="0.0638" style="stop-color:#76769C"/>
		<stop  offset="0.2325" style="stop-color:#9D9CBB"/>
		<stop  offset="0.3854" style="stop-color:#BEBDD4"/>
		<stop  offset="0.5157" style="stop-color:#D6D4E7"/>
		<stop  offset="0.6081" style="stop-color:#E0DEF0"/>
	</linearGradient>
	<path class="st30" d="M516.23,70.12h-41.02l-24.65,22.57c-1.96,1.79-2.52,2.27-3.73,2.34l-0.1,0c-1.52,0-2.2-1.16-3.14-2.76
		l-13.17-22.16h-40.65l18.8,33.05c1.36,1.92,3.44,2.06,5.92,2.06h56.59c2.96,0,3.19,1.86,1.82,3.92L516.23,70.12z"/>
	<linearGradient id="SVGID_19_" gradientUnits="userSpaceOnUse" x1="125.8625" y1="109.1403" x2="125.8625" y2="70.1178">
		<stop  offset="0" style="stop-color:#676891"/>
		<stop  offset="0.0638" style="stop-color:#76769C"/>
		<stop  offset="0.2325" style="stop-color:#9D9CBB"/>
		<stop  offset="0.3854" style="stop-color:#BEBDD4"/>
		<stop  offset="0.5157" style="stop-color:#D6D4E7"/>
		<stop  offset="0.6081" style="stop-color:#E0DEF0"/>
	</linearGradient>
	<path class="st31" d="M152.56,70.12h-44.13l-9.21,33.22c-0.3,1.1,0.72,1.88,1.88,1.89h37.74c2.96,0,3.25,2.42,3.03,3.91
		L152.56,70.12z"/>
	<path class="st32" d="M105.23,101.09c-1.35,0-2.16-0.86-1.88-2.04l7.04-25.37l-1.29-1.44l-8.24,29.71
		c-0.28,1.17,0.72,1.92,1.88,1.92h36.92c1.39,0,1.99,0.73,2.22,1.06l0.88-3.23c-0.47-0.38-1.13-0.62-2.07-0.62H105.23z"/>
	<linearGradient id="SVGID_20_" gradientUnits="userSpaceOnUse" x1="40.312" y1="109.1403" x2="40.312" y2="70.1178">
		<stop  offset="0" style="stop-color:#676891"/>
		<stop  offset="0.0638" style="stop-color:#76769C"/>
		<stop  offset="0.2325" style="stop-color:#9D9CBB"/>
		<stop  offset="0.3854" style="stop-color:#BEBDD4"/>
		<stop  offset="0.5157" style="stop-color:#D6D4E7"/>
		<stop  offset="0.6081" style="stop-color:#E0DEF0"/>
	</linearGradient>
	<path class="st33" d="M52.04,105.23c2.95,0,3.31,2.44,3.02,3.91l11.21-39.02l-42.87,0.02l-8.99,33.05
		c-0.33,1.16,0.65,2.04,1.7,2.04H52.04z"/>
	<g>
		<line class="st34" x1="23.97" y1="72.26" x2="23.97" y2="72.27"/>
		<path class="st32" d="M17.74,103.88l34.95,0c1.12,0,2.03,0.32,2.5,0.8l0.8-2.79c-0.47-0.48-1.37-0.8-2.49-0.8l-33.3-0.01
			c-1.04,0-2.04-0.77-1.75-1.9l6.93-25.46l-1.31-1.44l-8.1,29.79C15.68,103.16,16.69,103.88,17.74,103.88z"/>
	</g>
	<polygon class="st13" points="24.08,72.27 64.39,72.24 63.98,73.69 25.39,73.71 	"/>
	<polygon class="st13" points="109.09,72.24 150.72,72.24 150.32,73.69 110.38,73.69 	"/>
	<path class="st32" d="M476.96,101.07h-64.5c-0.46-0.01-2.17-0.15-3.21-1.85c-0.75-1.22-14.5-25.53-14.5-25.53l-2.49-1.44
		l16.76,29.49c0.65,1.1,2.22,2.15,4.46,2.15h58.58c2.35,0,3.04,0.94,3.15,1.7l4.52-3.98C479.44,101.15,478.47,101.07,476.96,101.07z
		"/>
	<path class="st17" d="M201.76,131.44c0,0,1.68-7.34,1.73-7.53c0.47-1.99,0.96-4.05,2.8-4.05c1.54,0,2.12,1.2,2.68,2.36
		c0.1,0.21,4.47,9.22,4.47,9.22h76.05l2.25-10.19c0.29-1.38,1.44-5.37-1.96-5.37l-36.98-0.05c-1.23,0-2.18,0.02-2.21-1.16
		c0,0-1.24,5.65-1.43,6.36c-0.2,0.74-0.62,2.27-2.12,2.27c-1.89,0-2.56-1.48-3.78-4.17c-0.19-0.41-1.58-3.4-2.18-4.7
		c-0.39,1.31-2.51,1.17-3.82,1.17l-69.87,0.08c-1.1,0-1.51,0.24-2.14-0.64l-4.55,16.43H201.76z"/>
	<path class="st25" d="M293.06,115.23c0.08-0.36,0.41-2.92-2.64-2.92h-36.76c-1.24,0-2.16-0.5-2.18-1.71l-0.89,4.05
		c-0.19,1.28,0.52,2.11,1.74,2.11l36.76,0c3.4,0,2.64,4.48,2.64,4.48L293.06,115.23z"/>
	<linearGradient id="SVGID_21_" gradientUnits="userSpaceOnUse" x1="278.0256" y1="109.1403" x2="278.0256" y2="70.1178">
		<stop  offset="0" style="stop-color:#676891"/>
		<stop  offset="0.0638" style="stop-color:#76769C"/>
		<stop  offset="0.2325" style="stop-color:#9D9CBB"/>
		<stop  offset="0.3854" style="stop-color:#BEBDD4"/>
		<stop  offset="0.5157" style="stop-color:#D6D4E7"/>
		<stop  offset="0.6081" style="stop-color:#E0DEF0"/>
	</linearGradient>
	<path class="st35" d="M303,70.12h-42.6l-7.31,33.15c-0.23,1.15,0.57,1.96,1.74,1.96h36.96c2.82,0,2.92,2.18,2.59,3.91L303,70.12z"
		/>
	<path class="st32" d="M292.83,101.09h-34.09c-1.17,0-1.99-0.7-1.74-1.96l5.55-25.44l0,0l-1.38-1.44l-6.54,29.67
		c-0.25,1.15,0.62,1.96,1.8,1.96h35.73c1.1,0,1.79,0.33,2.2,0.82l0.68-2.77C294.63,101.44,293.93,101.09,292.83,101.09z"/>
	<g>
		<path class="st25" d="M240.79,113.8c-0.69-1.37-2.44-1.49-3.76-1.49l-68.42,0c-1.14,0-2.21-0.57-2.19-1.64l-1.19,4.33
			c-0.25,1.27,0.73,1.76,1.84,1.76h70.94c1.32,0,3.62,0.27,6.26,4.48L240.79,113.8z"/>
	</g>
	<linearGradient id="SVGID_22_" gradientUnits="userSpaceOnUse" x1="203.5435" y1="109.1403" x2="203.5435" y2="70.1178">
		<stop  offset="0" style="stop-color:#676891"/>
		<stop  offset="0.0638" style="stop-color:#76769C"/>
		<stop  offset="0.2325" style="stop-color:#9D9CBB"/>
		<stop  offset="0.3854" style="stop-color:#BEBDD4"/>
		<stop  offset="0.5157" style="stop-color:#D6D4E7"/>
		<stop  offset="0.6081" style="stop-color:#E0DEF0"/>
	</linearGradient>
	<path class="st36" d="M238.6,109.14l-18.2-39.02h-42.72l-9.15,33.02c-0.23,1.15,0.59,2.09,1.81,2.09h62.14
		C236.59,105.23,238.6,109.14,238.6,109.14z"/>
	<path class="st32" d="M233.97,101.71c0,0-0.27-0.61-1.36-0.61h-58.12c-1.22,0-2.05-0.91-1.88-2.09l7.04-25.31l0,0l-1.31-1.44
		l-8.17,29.47c-0.17,1.18,0.61,2.17,1.84,2.17h60.76c2.05,0,2.57,0.76,2.57,0.76L233.97,101.71z"/>
	<polygon class="st13" points="508.96,73.66 475.13,73.66 474.56,72.22 510.72,72.22 	"/>
	<polygon class="st13" points="262.55,73.69 300.98,73.69 301.3,72.24 261.17,72.24 	"/>
	<polygon class="st13" points="179.65,73.69 178.34,72.24 220.06,72.24 220.73,73.69 	"/>
	<polygon class="st13" points="431.4,73.69 394.71,73.69 392.22,72.24 430.55,72.24 	"/>
	<g>
		<polygon class="st13" points="299.32,175.34 347.31,175.34 348.07,173.58 300.09,173.58 		"/>
		<polygon class="st13" points="148.51,175.36 191.59,175.36 192.01,173.59 149,173.59 		"/>
		<path class="st13" d="M490.99,173.56l-40.21,0l-14.1-23.89c-2.64-4.01-5.8-3.75-5.8-3.75c1.79,0.24,2.97,2.2,4.38,4.64
			l14.59,24.72l0.03,0.05l42.17,0L490.99,173.56z"/>
		<polygon class="st13" points="357.73,175.33 398.53,175.33 400.35,173.56 359.81,173.56 		"/>
		<path class="st13" d="M117.24,169.07c-6.23,3.5-10.94,4.31-18.7,4.49l-77.78-0.01c-3.76-0.01-9.45-0.01-14.12-4.71
			c-2.79-2.81-4.38-5.97-4.38-5.97c0.16,1.31,1.11,4.5,3.2,7.09c4.36,5.37,11.74,5.4,15.71,5.41l77.38,0.01h0
			c8.12-0.19,13.07-1.01,19.66-4.77c2.48-1.72,5.51-4.88,6.8-7.82C125.01,162.78,120.63,167.17,117.24,169.07z"/>
	</g>
	<path class="st37" d="M208.99,122.26c0,0,24.06,49.74,25.65,53.04l0.03,0.06h45.13l0.39-1.77h-44.55
		C234.21,170.84,208.99,122.26,208.99,122.26z"/>
	<path class="st32" d="M474.54,72.24l-24.04,22.01c-1.24,1.14-1.9,1.52-2.58,1.74c-0.31,0.09-0.66,0.13-1.01,0.13
		c-0.36,0.01-0.74-0.01-0.94-0.05c-1.78-0.37-2.4-1.49-3.29-3l-1.29-2.36l-9.98-17.03c0,0,7.69,15.81,9.88,20.12
		c1.03,1.76,2.33,4.11,5.45,4.11l0.28-0.01c2.28-0.14,3.42-1.19,5.51-3.1l10-9.15l12.59-11.98L474.54,72.24z"/>
	<path class="st13" d="M89.3,139.01c0,0-1.24,4.67-5.04,5.96c-4.04,1.38-10.47,1.41-16.94,1.41s-15.05-0.23-17.73-1.94
		c-2.86-1.83-2.28-5.82-2.28-5.82s-0.85,4.41,0.66,6.46c0.87,1.19,1.71,2.92,18.65,2.92c17.32,0,18.92-1.17,20.72-4.14
		C88.54,141.86,89.3,139.01,89.3,139.01z"/>
	<path class="st13" d="M280.19,173.59l-44.62,0l-24.02-49.85c-2.05-4.28-5.31-3.89-5.31-3.89c2.32,0.38,2.57,2.13,3.89,4.77
		l24.54,50.74l45.12,0L280.19,173.59z"/>
</g>
</svg>
